<?xml version="1.0" encoding="UTF-8" standalone="no"?>
<!-- Created with Inkscape (http://www.inkscape.org/) -->

<svg
   version="1.1"
   id="svg9"
   width="708"
   height="624"
   viewBox="0 0 708 624"
   sodipodi:docname="gallery-social-bg-tablet.svg"
   inkscape:version="1.1 (c68e22c387, 2021-05-23)"
   xmlns:inkscape="http://www.inkscape.org/namespaces/inkscape"
   xmlns:sodipodi="http://sodipodi.sourceforge.net/DTD/sodipodi-0.dtd"
   xmlns:xlink="http://www.w3.org/1999/xlink"
   xmlns="http://www.w3.org/2000/svg"
   xmlns:svg="http://www.w3.org/2000/svg">
  <defs
     id="defs13" />
  <sodipodi:namedview
     id="namedview11"
     pagecolor="#ffffff"
     bordercolor="#666666"
     borderopacity="1.0"
     inkscape:pageshadow="2"
     inkscape:pageopacity="0.0"
     inkscape:pagecheckerboard="0"
     showgrid="false"
     inkscape:zoom="0.91674581"
     inkscape:cx="493.59375"
     inkscape:cy="302.70114"
     inkscape:window-width="1920"
     inkscape:window-height="1017"
     inkscape:window-x="-4"
     inkscape:window-y="-4"
     inkscape:window-maximized="1"
     inkscape:current-layer="g15" />
  <g
     inkscape:groupmode="layer"
     inkscape:label="Image"
     id="g15">
    <image
       width="708"
       height="624"
       preserveAspectRatio="none"
       xlink:href="gallery-social-bg.jpg"
       id="image17" />
    <path
       style="fill:none;stroke:#00cd00;stroke-width:0.626354px;stroke-linecap:butt;stroke-linejoin:miter;stroke-opacity:1"
       d="M 411.58896,1.6639254 C 368.84751,0.45808501 346.23328,18.040463 318.61645,30.953079 l -13.88164,7.40672 -49.32768,23.985737 -59.57988,22.602548 C 174.09949,94.081737 156.35311,99.118942 127.98498,115.08483 95.832254,134.53941 64.301909,157.6533 37.233682,207.00194 16.901425,246.24264 3.2127885,291.07005 1.9856701,346.37668 3.978997,432.8123 28.205768,464.13519 41.527192,487.77605 c 19.185624,25.38493 26.15388,45.37051 93.063308,91.91712 62.5202,39.51376 131.59466,40.50505 277.99362,44.01227 C 850.46314,616.45836 752.20514,14.266264 411.58896,1.6639254 Z"
       id="path392"
       sodipodi:nodetypes="cccccccccccc" />
    <g
       id="g3622">
      <g
         id="g3626"
         transform="matrix(0.62569347,0,0,0.99817284,355.70917,893.75003)" />
    </g>
  </g>
</svg>
