<svg id="Layer_3" enable-background="new 0 0 64 64" height="512" viewBox="0 0 64 64" width="512" xmlns="http://www.w3.org/2000/svg"><g><path d="m17.914 52.5 7.793-7.793c.181-.181.293-.431.293-.707 0-2.757-2.243-5-5-5h-13v-17c0-1.654-1.346-3-3-3s-3 1.346-3 3v18 4c0 .276.112.526.293.707l7.793 7.793-8.793 8.793c-.286.286-.372.716-.217 1.09.155.373.52.617.924.617h5c.265 0 .52-.105.707-.293l6.293-6.293 6.293 6.293c.187.188.442.293.707.293h5c.404 0 .769-.244.924-.617.155-.374.069-.804-.217-1.09zm-2.5-2.5 5-5h2.172l-6.086 6.086zm-5-5h7.172l-3.586 3.586zm13.415-2h-19.829v-2h17c1.304 0 2.416.836 2.829 2zm-18.829-22c.551 0 1 .449 1 1v17h-2v-17c0-.551.449-1 1-1zm1.586 40h-2.172l7.086-7.086 1.086 1.086zm14.828 0-16-16h2.172l16 16z"/><path d="m53.914 52.5 7.793-7.793c.181-.181.293-.431.293-.707v-4-18c0-1.654-1.346-3-3-3s-3 1.346-3 3v17h-13c-2.757 0-5 2.243-5 5 0 .276.112.526.293.707l7.793 7.793-8.793 8.793c-.286.286-.372.716-.217 1.09.155.373.52.617.924.617h5c.265 0 .52-.105.707-.293l6.293-6.293 6.293 6.293c.187.188.442.293.707.293h5c.404 0 .769-.244.924-.617.155-.374.069-.804-.217-1.09zm4.086-30.5c0-.551.449-1 1-1s1 .449 1 1v17h-2zm-15 19h17v2h-19.829c.413-1.164 1.525-2 2.829-2zm7 7.586-3.586-3.586h7.172zm-8.586-3.586h2.172l5 5-1.086 1.086zm1.172 16h-2.172l16-16h2.172zm14.828 0-6-6 1.086-1.086 7.086 7.086z"/><path d="m35 51v-13.586l5.414-5.414h3.586c2.206 0 4-1.794 4-4s-1.794-4-4-4h-9v-11.586l5.414-5.414h19.586c1.654 0 3-1.346 3-3s-1.346-3-3-3h-56c-1.654 0-3 1.346-3 3s1.346 3 3 3h19.586l5.414 5.414v11.586h-9c-2.206 0-4 1.794-4 4s1.794 4 4 4h3.586l5.414 5.414v13.586c-.552 0-1 .448-1 1v10c0 .552.448 1 1 1h6c.552 0 1-.448 1-1v-10c0-.552-.448-1-1-1zm0-16.414v-2.586h2.586zm0-25v-2.586h2.586zm-32-5.586c0-.551.449-1 1-1h56c.551 0 1 .449 1 1s-.449 1-1 1h-56c-.551 0-1-.449-1-1zm23.414 3h2.586v2.586zm4.586 0h2v17h-2zm-13 21c0-1.103.897-2 2-2h24c1.103 0 2 .897 2 2s-.897 2-2 2h-24c-1.103 0-2-.897-2-2zm8.414 4h2.586v2.586zm4.586 0h2v19h-2zm3 29h-4v-8h4z"/></g></svg>