<?xml version="1.0" encoding="UTF-8"?>
<!DOCTYPE svg PUBLIC "-//W3C//DTD SVG 1.1//EN" "http://www.w3.org/Graphics/SVG/1.1/DTD/svg11.dtd">
<!-- Creator: CorelDRAW 2020 (64-Bit) -->
<svg xmlns="http://www.w3.org/2000/svg" xml:space="preserve" width="53px" height="81px" version="1.1" style="shape-rendering:geometricPrecision; text-rendering:geometricPrecision; image-rendering:optimizeQuality; fill-rule:evenodd; clip-rule:evenodd"
viewBox="0 0 75.84 115.71"
 xmlns:xlink="http://www.w3.org/1999/xlink"
 xmlns:xodm="http://www.corel.com/coreldraw/odm/2003">
 <defs>
  <style type="text/css">
   <![CDATA[
    .fil0 {fill:#252627;fill-rule:nonzero}
   ]]>
  </style>
 </defs>
 <g id="Слой_x0020_1">
  <metadata id="CorelCorpID_0Corel-Layer"/>
  <g id="_1032317424">
   <path class="fil0" d="M55.09 59.61c-28.02,14.22 -29.4,34.23 -29.4,34.23 0,0 6.6,4.66 9.05,9.56 0.4,0.81 -4.47,-15.24 24.13,-36.37 13.33,-9.85 16.97,-24.97 16.97,-24.97 0,0 -5.13,9.62 -20.75,17.55z"/>
   <path class="fil0" d="M52.19 78.5c-20.42,24.15 -10.66,37.21 -10.66,37.21 0,0 6.01,-13.68 7.64,-18.47 1.43,-4.23 5.91,-22.14 3.02,-18.74z"/>
   <path class="fil0" d="M0 41.48c0,0 6.43,-11.92 36.32,-13.88 23.42,-1.54 36.86,-0.58 36.86,-0.58 0,0 -23.31,-6.68 -59.53,-3.1 -3.13,0.31 -9.84,3.99 -10.86,6.34 -0.55,1.26 1.27,4.43 0.38,5.47 -2.79,3.26 -3.17,5.75 -3.17,5.75z"/>
   <path class="fil0" d="M65.23 22.98c1.74,0.78 -4.58,-6.19 -6.42,-6.68 -19.55,-5.27 -39.56,5.08 -39.56,5.08 0,0 27.57,-6.57 45.98,1.6z"/>
   <path class="fil0" d="M49.69 11.98c6.49,0.58 7.92,1.92 7.92,1.92 0,0 -0.02,-4.29 -4.48,-4.98 -9.51,-1.5 -22.86,6.05 -22.86,6.05 0,0 10.38,-3.8 19.42,-2.99z"/>
   <path class="fil0" d="M50 6.84c0,0 -0.75,-1.94 -1.58,-2.23 -3.07,-1.09 -11.63,4.76 -11.63,4.76 0,0 5.65,-2.12 7.62,-2.44 1.38,-0.23 5.59,-0.09 5.59,-0.09z"/>
   <path class="fil0" d="M45.71 2.66c0.74,0.09 -0.61,-2.59 -1.35,-2.66l-3.59 4.66c0,0 3.39,-2.2 4.94,-2z"/>
   <path class="fil0" d="M23.75 60.17l0.23 0.86c0,0 2.97,-1.88 4.58,-2.74 0.04,-0.02 -0.12,-0.83 -0.12,-0.83 0,0 -1.06,0.76 -1.23,-0.36 -1.34,-9.11 -2.44,-19.13 -2.65,-23.29 -0.05,-1 1.1,-1.16 1.1,-1.16l-0.09 -0.65 -5.57 1.22 0.16 0.92c0,0 1.57,-0.12 1.63,0.27 0.1,0.67 0.1,1.03 0.1,1.03 1.45,7.71 -5.28,14.27 -5.28,14.27 0,0 1.51,9.14 2.27,13.07 0.14,0.7 -0.81,1.8 -0.81,1.8l0.22 0.64c1.96,-1.56 4.53,-3.44 4.53,-3.44l-0.2 -0.66c0,0 -0.94,0.8 -1.16,-0.17 -0.3,-1.34 -1.77,-10.48 -1.77,-10.48 0,0 2.17,-1.16 3.47,-1.79 0,0 1.16,8.07 1.45,9.74 0.17,1.01 -0.86,1.75 -0.86,1.75zm-4.67 -11.85l0 0c0,0 3.36,-3.69 3.61,-6.99l0.25 5.1 -3.86 1.89z"/>
   <path class="fil0" d="M35.84 53.76l0.19 0.75 3.59 -1.58 -0.12 -0.69c0,0 -0.82,0.26 -0.85,-0.29 -0.68,-11.35 -0.6,-15.17 -0.69,-19.99 -0.01,-0.76 0.94,-0.92 0.94,-0.92l-0.03 -0.58c-6.03,0.33 -11.17,1.2 -11.17,1.2l0.1 0.63c0,0 0.98,-0.11 1.03,0.56 0.84,11.16 0.81,13.44 1.7,22.28 0.08,0.87 -0.89,1.57 -0.89,1.57l0.2 0.88 4.5 -2.28 -0.19 -0.79c-0.49,0.16 -1.11,0.07 -1.16,-0.45 -1.47,-14.86 -1.47,-21.67 -1.47,-21.67 2.47,-0.42 3.87,-0.44 3.87,-0.44 0,0 0.15,13.28 1.16,20.66 0.11,0.81 -0.71,1.15 -0.71,1.15z"/>
   <path class="fil0" d="M55.22 45.99l0.04 0.62 3.01 -1.27 0 -0.66c-0.62,0.4 -0.61,-0.44 -0.61,-0.44l-0.37 -13.96c0,0 0.05,-0.4 0.5,-0.4l0 -0.46 -3.08 0.12 0.02 0.49c0.68,0.01 0.61,0.33 0.61,0.33l0.14 4.14 -3.27 0.47 -0.17 -4.55c0,0 -0.01,-0.31 0.49,-0.34l-0.01 -0.45 -3.07 0.16 0.02 0.48c0.7,-0.04 0.62,0.27 0.62,0.27l0.44 16.58c0,0 -0.07,0.78 -0.63,1.1l0.07 0.58 3.13 -1.29 0.01 -0.63c-0.58,0.29 -0.64,-0.66 -0.64,-0.66l-0.22 -9.7 3.27 -0.6 0.2 8.94c0,0 0.05,0.87 -0.5,1.13z"/>
   <path class="fil0" d="M59.55 44.34l0 0.5 5.56 -2.51c0,-0.14 0,-0.39 0,-0.39 -0.06,0.01 -0.57,0.16 -0.55,-0.27 0,0 -0.18,-5.24 -0.24,-6.29 0,0 -2.47,-0.09 -3.26,-3.02 -0.01,-0.03 -0.09,-1.61 -0.08,-2.47 0.01,-0.32 0.35,-0.29 0.35,-0.33 -0.01,-0.18 0.01,-0.25 0.01,-0.25l-1.97 0.05 0 0.33c0.35,0.02 0.32,0.26 0.32,0.26l0.27 13.6c0,0 0,0.36 -0.06,0.48 -0.06,0.1 -0.35,0.31 -0.35,0.31zm1.51 -10.4l0 0c0.05,0.69 2.01,1.93 2,1.81l0.23 6.83 -2.05 0.89c0,0 -0.25,-10.29 -0.18,-9.53z"/>
   <path class="fil0" d="M65.43 41.82l0.01 0.35 2 -0.98 0 -0.34c-0.45,0.26 -0.41,-0.12 -0.41,-0.12l-0.22 -10.84c0,0 -0.03,-0.38 0.42,-0.38l0 -0.29 -2.12 0.02 0 0.3c0.45,0.01 0.42,0.35 0.42,0.35l0.22 11.47c0,0 0.07,0.28 -0.32,0.46z"/>
   <path class="fil0" d="M72.68 29.55l0 -0.3 -1.66 0.01 0.01 0.26c0.29,0.01 0.26,0.36 0.26,0.36l-0.02 5.51c0,-0.5 -1.74,-0.86 -1.74,-0.86 -0.02,-1.65 -0.04,-4.71 -0.04,-4.71 0,0 -0.02,-0.3 0.29,-0.31l0.01 -0.26 -1.7 0 0 0.25c0.36,0.03 0.27,0.38 0.27,0.38l0.05 5.11c3.16,-0.06 2.88,1.63 2.88,1.74l0 1.53c0,0 0.03,0.26 -0.21,0.43l0.01 0.29c0,0 1.06,-0.7 1.53,-1.18l0 -0.28c-0.22,0.21 -0.21,-0.09 -0.21,-0.09l0 -7.6c0,0 -0.04,-0.29 0.27,-0.28z"/>
   <path class="fil0" d="M45.09 50l0.11 0.63 3.32 -1.34 -0.04 -0.49c0,0 -0.86,0.41 -0.88,-0.64 -0.12,-5.36 -0.24,-14.65 -0.22,-17.15 0,-0.66 0.98,-0.67 0.98,-0.67l-0.01 -0.5 -4.02 0.25 0.03 0.52c0,0 1.06,-0.09 1.12,0.62 0.47,5.24 -4.65,9.4 -4.65,9.4 0,0 0.34,7.47 0.61,10.09 0.08,0.78 -0.67,1.04 -0.67,1.04l0.1 0.64c1.57,-0.64 3.24,-1.33 3.24,-1.33l-0.08 -0.7c0,0 -0.78,0.4 -0.84,-0.25 -0.37,-3.78 -0.5,-7.97 -0.5,-7.97 0,0 1.84,-0.55 2.9,-0.82 0,0 0.07,6.57 0.21,7.68 0.12,0.85 -0.71,0.99 -0.71,0.99zm0.5 -10.53l0 0 -3.07 0.83c0,0 2.67,-2.33 3.07,-4.48l0 3.65z"/>
   <path class="fil0" d="M13.55 69.01c-0.89,1.34 -1.72,0.32 -1.72,0.32 0,0 -1.1,-2.93 -2.1,-6.06 0,0 0,0 0,0 -0.04,-6.85 3.31,-8.95 4.74,-9.91 0,0 -1.81,-13.93 -1.61,-15.2 0.07,-0.45 0.42,-1.4 1.15,-1.85l-0.02 -1.1c0,0 -7.18,2.18 -12.52,7.87 -0.36,0.37 -1.46,1.64 -1.46,1.64l0.13 0.98c0,0 1.55,-1.25 1.81,0.85 0.65,5.08 4.41,18.3 7.36,24.32 1.5,3.04 0.41,4.39 0.55,4.62 0.46,0.76 0.62,0.95 0.62,0.95 1.09,-3.97 3.4,-6.58 3.4,-6.58l-0.33 -0.85zm-4.15 -28.79l0 0c0.06,1.11 1.99,12.32 1.99,12.32 0,0 -2.65,3.44 -2.52,7.69l0.01 0.05c0,0.03 -0.01,0.06 -0.01,0.09 0,0 0,0 0,0 0,0 0,0 0,0 0,0 0,0 0,0 -0.01,-0.02 -0.01,-0.04 -0.02,-0.06 -0.02,-0.08 -0.04,-0.17 -0.06,-0.25 -1.65,-6.13 -3.41,-13.16 -3.74,-15.67 -0.19,-1.44 4.35,-4.17 4.35,-4.17z"/>
   <path class="fil0" d="M8.79 60.06c0.02,0.08 0.04,0.17 0.06,0.25 0.01,0.02 0.01,0.04 0.02,0.06 0,-0.05 0,-0.1 0,-0.14l-0.34 -1.2c0.07,0.33 0.16,0.67 0.26,1.03z"/>
   <path class="fil0" d="M49.21 58.97c21,-10.71 24.88,-17.44 25.4,-19.5l-0.7 0.57 0 0c-4,3.9 -26.62,12.82 -34.77,16.41 -24,10.57 -27.76,20.31 -27.81,25.29 -0.02,2.2 1.39,-0.04 1.69,0.7l7.19 7.74c0,0 -1.13,-15.87 29,-31.21z"/>
  </g>
 </g>
</svg>
