<?xml version="1.0" encoding="UTF-8"?>
<!DOCTYPE svg PUBLIC "-//W3C//DTD SVG 1.1//EN" "http://www.w3.org/Graphics/SVG/1.1/DTD/svg11.dtd">
<!-- Creator: CorelDRAW 2020 (64-Bit) -->
<svg xmlns="http://www.w3.org/2000/svg" xml:space="preserve" width="30px" height="46px" version="1.1" style="shape-rendering:geometricPrecision; text-rendering:geometricPrecision; image-rendering:optimizeQuality; fill-rule:evenodd; clip-rule:evenodd"
viewBox="0 0 7.13 10.87"
 xmlns:xlink="http://www.w3.org/1999/xlink"
 xmlns:xodm="http://www.corel.com/coreldraw/odm/2003">
 <defs>
  <style type="text/css">
   <![CDATA[
    .fil0 {fill:#252627;fill-rule:nonzero}
   ]]>
  </style>
 </defs>
 <g id="Слой_x0020_1">
  <metadata id="CorelCorpID_0Corel-Layer"/>
  <g id="_1032317424">
   <path class="fil0" d="M5.18 5.6c-2.64,1.34 -2.77,3.22 -2.77,3.22 0,0 0.62,0.43 0.85,0.89 0.04,0.08 -0.42,-1.43 2.27,-3.41 1.25,-0.93 1.6,-2.35 1.6,-2.35 0,0 -0.49,0.91 -1.95,1.65l0 0z"/>
   <path class="fil0" d="M4.9 7.38c-1.92,2.26 -1,3.49 -1,3.49 0,0 0.57,-1.28 0.72,-1.73 0.13,-0.4 0.55,-2.08 0.28,-1.76z"/>
   <path class="fil0" d="M0 3.9c0,0 0.6,-1.12 3.41,-1.31 2.2,-0.14 3.47,-0.05 3.47,-0.05 0,0 -2.19,-0.63 -5.6,-0.29 -0.29,0.03 -0.92,0.37 -1.02,0.59 -0.05,0.12 0.12,0.42 0.04,0.52 -0.26,0.3 -0.3,0.54 -0.3,0.54l0 0z"/>
   <path class="fil0" d="M6.13 2.16c0.16,0.07 -0.43,-0.58 -0.6,-0.63 -1.84,-0.49 -3.72,0.48 -3.72,0.48 0,0 2.59,-0.62 4.32,0.15z"/>
   <path class="fil0" d="M4.67 1.13c0.61,0.05 0.74,0.18 0.74,0.18 0,0 0,-0.41 -0.42,-0.47 -0.89,-0.14 -2.15,0.57 -2.15,0.57 0,0 0.98,-0.36 1.83,-0.28z"/>
   <path class="fil0" d="M4.7 0.64c0,0 -0.07,-0.18 -0.15,-0.21 -0.29,-0.1 -1.09,0.45 -1.09,0.45 0,0 0.53,-0.2 0.71,-0.23 0.13,-0.02 0.53,-0.01 0.53,-0.01z"/>
   <path class="fil0" d="M4.29 0.25c0.07,0.01 -0.05,-0.24 -0.12,-0.25l-0.34 0.44c0,0 0.32,-0.21 0.46,-0.19z"/>
   <path class="fil0" d="M2.23 5.65l0.02 0.08c0,0 0.28,-0.17 0.43,-0.25 0.01,-0.01 -0.01,-0.08 -0.01,-0.08 0,0 -0.1,0.07 -0.11,-0.04 -0.13,-0.85 -0.23,-1.79 -0.25,-2.18 -0.01,-0.1 0.1,-0.11 0.1,-0.11l-0.01 -0.06 -0.52 0.11 0.01 0.09c0,0 0.15,-0.01 0.16,0.02 0.01,0.07 0.01,0.1 0.01,0.1 0.13,0.72 -0.5,1.34 -0.5,1.34 0,0 0.14,0.86 0.21,1.23 0.02,0.06 -0.07,0.17 -0.07,0.17l0.02 0.06c0.18,-0.15 0.42,-0.33 0.42,-0.33l-0.01 -0.06c0,0 -0.09,0.08 -0.11,-0.01 -0.03,-0.13 -0.17,-0.99 -0.17,-0.99 0,0 0.2,-0.11 0.33,-0.17 0,0 0.11,0.76 0.13,0.92 0.02,0.09 -0.08,0.16 -0.08,0.16l0 0zm-0.44 -1.11l0 0c0,0 0.32,-0.35 0.34,-0.66l0.03 0.48 -0.37 0.18z"/>
   <path class="fil0" d="M3.37 5.05l0.02 0.07 0.33 -0.15 -0.01 -0.06c0,0 -0.08,0.02 -0.08,-0.03 -0.06,-1.07 -0.06,-1.42 -0.06,-1.88 0,-0.07 0.08,-0.08 0.08,-0.08l0 -0.06c-0.56,0.03 -1.05,0.11 -1.05,0.11l0.01 0.06c0,0 0.09,-0.01 0.1,0.06 0.08,1.04 0.07,1.26 0.16,2.09 0.01,0.08 -0.09,0.15 -0.09,0.15l0.02 0.08 0.43 -0.21 -0.02 -0.08c-0.05,0.02 -0.11,0.01 -0.11,-0.04 -0.14,-1.4 -0.14,-2.04 -0.14,-2.04 0.23,-0.04 0.36,-0.04 0.36,-0.04 0,0 0.02,1.25 0.11,1.94 0.01,0.08 -0.06,0.11 -0.06,0.11z"/>
   <path class="fil0" d="M5.19 4.32l0 0.06 0.28 -0.12 0 -0.06c-0.05,0.04 -0.05,-0.04 -0.05,-0.04l-0.04 -1.32c0,0 0.01,-0.03 0.05,-0.03l0 -0.05 -0.29 0.02 0 0.04c0.07,0 0.06,0.03 0.06,0.03l0.01 0.39 -0.3 0.05 -0.02 -0.43c0,0 0,-0.03 0.05,-0.03l-0.01 -0.05 -0.28 0.02 0 0.04c0.06,0 0.06,0.03 0.06,0.03l0.04 1.56c0,0 -0.01,0.07 -0.06,0.1l0 0.05 0.3 -0.12 0 -0.06c-0.05,0.03 -0.06,-0.06 -0.06,-0.06l-0.02 -0.91 0.31 -0.06 0.02 0.84c0,0 0,0.09 -0.05,0.11l0 0z"/>
   <path class="fil0" d="M5.59 4.17l0 0.04 0.53 -0.23c0,-0.02 0,-0.04 0,-0.04 -0.01,0 -0.06,0.02 -0.05,-0.03 0,0 -0.02,-0.49 -0.03,-0.59 0,0 -0.23,0 -0.3,-0.28 0,0 -0.01,-0.15 -0.01,-0.23 0,-0.03 0.03,-0.03 0.03,-0.03 0,-0.02 0,-0.03 0,-0.03l-0.18 0.01 0 0.03c0.03,0 0.03,0.02 0.03,0.02l0.02 1.28c0,0 0,0.04 0,0.05 -0.01,0.01 -0.04,0.03 -0.04,0.03l0 0zm0.15 -0.98l0 0c0,0.06 0.19,0.18 0.18,0.17l0.03 0.64 -0.2 0.08c0,0 -0.02,-0.96 -0.01,-0.89l0 0z"/>
   <path class="fil0" d="M6.15 3.93l0 0.03 0.19 -0.09 0 -0.03c-0.05,0.02 -0.04,-0.01 -0.04,-0.01l-0.02 -1.02c0,0 -0.01,-0.04 0.04,-0.04l0 -0.02 -0.2 0 0 0.03c0.04,0 0.04,0.03 0.04,0.03l0.02 1.08c0,0 0,0.02 -0.03,0.04z"/>
   <path class="fil0" d="M6.83 2.78l0 -0.03 -0.16 0 0 0.02c0.03,0 0.03,0.04 0.03,0.04l0 0.51c0,-0.04 -0.17,-0.08 -0.17,-0.08 0,-0.15 0,-0.44 0,-0.44 0,0 0,-0.03 0.03,-0.03l0 -0.02 -0.16 0 0 0.02c0.03,0 0.02,0.04 0.02,0.04l0.01 0.48c0.29,-0.01 0.27,0.15 0.27,0.16l0 0.14c0,0 0,0.03 -0.02,0.04l0 0.03c0,0 0.1,-0.06 0.14,-0.11l0 -0.03c-0.02,0.02 -0.02,0 -0.02,0l0 -0.72c0,0 0,-0.02 0.03,-0.02l0 0z"/>
   <path class="fil0" d="M4.24 4.7l0.01 0.06 0.31 -0.13 -0.01 -0.05c0,0 -0.08,0.04 -0.08,-0.06 -0.01,-0.5 -0.02,-1.37 -0.02,-1.61 0,-0.06 0.09,-0.06 0.09,-0.06l0 -0.05 -0.37 0.03 0 0.05c0,0 0.1,-0.01 0.1,0.05 0.05,0.5 -0.43,0.89 -0.43,0.89 0,0 0.03,0.7 0.05,0.95 0.01,0.07 -0.06,0.09 -0.06,0.09l0.01 0.06c0.15,-0.06 0.3,-0.12 0.3,-0.12l0 -0.07c0,0 -0.08,0.04 -0.08,-0.02 -0.04,-0.36 -0.05,-0.75 -0.05,-0.75 0,0 0.17,-0.05 0.27,-0.08 0,0 0.01,0.62 0.02,0.72 0.01,0.08 -0.06,0.1 -0.06,0.1l0 0zm0.04 -0.99l0 0 -0.28 0.08c0,0 0.25,-0.22 0.28,-0.42l0 0.34z"/>
   <path class="fil0" d="M1.27 6.48c-0.08,0.13 -0.16,0.03 -0.16,0.03 0,0 -0.1,-0.27 -0.2,-0.57 0,0 0,0 0,0 0,-0.64 0.32,-0.84 0.45,-0.93 0,0 -0.17,-1.31 -0.15,-1.42 0,-0.05 0.04,-0.14 0.11,-0.18l-0.01 -0.1c0,0 -0.67,0.2 -1.17,0.74 -0.04,0.03 -0.14,0.15 -0.14,0.15l0.01 0.09c0,0 0.15,-0.11 0.17,0.08 0.06,0.48 0.42,1.72 0.69,2.29 0.15,0.28 0.04,0.41 0.06,0.43 0.04,0.07 0.05,0.09 0.05,0.09 0.11,-0.37 0.32,-0.62 0.32,-0.62l-0.03 -0.08 0 0zm-0.39 -2.7l0 0c0.01,0.1 0.19,1.16 0.19,1.16 0,0 -0.25,0.32 -0.24,0.72l0 0c0,0.01 0,0.01 0,0.01 0,0 0,0 0,0 0,0 0,0 0,0 0,0 0,0 0,0 0,0 0,0 0,0 0,-0.01 0,-0.02 0,-0.03 -0.16,-0.57 -0.32,-1.23 -0.36,-1.47 -0.01,-0.13 0.41,-0.39 0.41,-0.39z"/>
   <path class="fil0" d="M0.83 5.64c0,0.01 0,0.02 0,0.03 0,0 0,0 0,0 0,0 0,-0.01 0,-0.01l-0.03 -0.11c0.01,0.03 0.02,0.06 0.03,0.09l0 0z"/>
   <path class="fil0" d="M4.62 5.54c1.98,-1.01 2.34,-1.64 2.39,-1.83l-0.07 0.05 0 0c-0.37,0.37 -2.5,1.21 -3.26,1.54 -2.26,1 -2.61,1.91 -2.62,2.38 0,0.21 0.14,0 0.16,0.07l0.68 0.72c0,0 -0.11,-1.49 2.72,-2.93l0 0z"/>
  </g>
 </g>
</svg>
