<?xml version="1.0" encoding="UTF-8"?>
<!DOCTYPE svg PUBLIC "-//W3C//DTD SVG 1.1//EN" "http://www.w3.org/Graphics/SVG/1.1/DTD/svg11.dtd">
<!-- Creator: CorelDRAW 2020 (64-Bit) -->
<svg xmlns="http://www.w3.org/2000/svg" xml:space="preserve" width="356px" height="543px" version="1.1" style="shape-rendering:geometricPrecision; text-rendering:geometricPrecision; image-rendering:optimizeQuality; fill-rule:evenodd; clip-rule:evenodd"
viewBox="0 0 144.67 220.72"
 xmlns:xlink="http://www.w3.org/1999/xlink"
 xmlns:xodm="http://www.corel.com/coreldraw/odm/2003">
 <defs>
  <style type="text/css">
   <![CDATA[
    .fil0 {fill:#C9C9C9}
    .fil1 {fill:#FCFBFB;fill-rule:nonzero}
   ]]>
  </style>
 </defs>
 <rect class="fil0" x="-348.18" y="-3.72" width="340.36" height="191.45"/>
 <g id="Слой_x0020_1">
  <metadata id="CorelCorpID_0Corel-Layer"/>
  <g id="_999705264">
   <path class="fil1" d="M105.08 113.71c-53.45,27.13 -56.08,65.3 -56.08,65.3 0,0 12.59,8.88 17.27,18.24 0.77,1.54 -8.53,-29.09 46.03,-69.39 25.42,-18.78 32.37,-47.63 32.37,-47.63 0,0 -9.79,18.36 -39.59,33.48z"/>
   <path class="fil1" d="M99.56 149.75c-38.95,46.06 -20.33,70.97 -20.33,70.97 0,0 11.46,-26.09 14.56,-35.23 2.73,-8.06 11.27,-42.24 5.77,-35.74z"/>
   <path class="fil1" d="M0 79.12c0,0 12.26,-22.72 69.29,-26.47 44.67,-2.94 70.31,-1.11 70.31,-1.11 0,0 -44.46,-12.73 -113.56,-5.91 -5.97,0.59 -18.78,7.61 -20.72,12.1 -1.04,2.4 2.43,8.45 0.73,10.43 -5.33,6.22 -6.05,10.96 -6.05,10.96z"/>
   <path class="fil1" d="M124.44 43.84c3.32,1.48 -8.75,-11.8 -12.25,-12.75 -37.3,-10.04 -75.47,9.7 -75.47,9.7 0,0 52.6,-12.54 87.72,3.05z"/>
   <path class="fil1" d="M94.79 22.86c12.38,1.11 15.1,3.66 15.1,3.66 0,0 -0.04,-8.18 -8.54,-9.51 -18.14,-2.85 -43.61,11.55 -43.61,11.55 0,0 19.79,-7.25 37.05,-5.7z"/>
   <path class="fil1" d="M95.38 13.04c0,0 -1.43,-3.69 -3.01,-4.25 -5.87,-2.07 -22.19,9.08 -22.19,9.08 0,0 10.77,-4.03 14.53,-4.65 2.63,-0.43 10.67,-0.18 10.67,-0.18z"/>
   <path class="fil1" d="M87.2 5.07c1.42,0.18 -1.16,-4.94 -2.58,-5.07l-6.85 8.89c0,0 6.46,-4.19 9.43,-3.82z"/>
   <path class="fil1" d="M45.31 114.78l0.44 1.65c0,0 5.65,-3.6 8.73,-5.24 0.07,-0.04 -0.23,-1.58 -0.23,-1.58 0,0 -2.03,1.46 -2.34,-0.69 -2.56,-17.38 -4.66,-36.48 -5.06,-44.43 -0.1,-1.9 2.09,-2.2 2.09,-2.2l-0.15 -1.24 -10.63 2.32 0.3 1.76c0,0 2.99,-0.24 3.11,0.51 0.19,1.29 0.19,1.96 0.19,1.96 2.77,14.71 -10.07,27.22 -10.07,27.22 0,0 2.88,17.44 4.34,24.94 0.25,1.33 -1.55,3.44 -1.55,3.44l0.42 1.22c3.74,-2.97 8.63,-6.56 8.63,-6.56l-0.37 -1.26c0,0 -1.8,1.53 -2.22,-0.33 -0.57,-2.55 -3.39,-19.99 -3.39,-19.99 0,0 4.15,-2.22 6.63,-3.42 0,0 2.21,15.4 2.76,18.58 0.33,1.93 -1.63,3.34 -1.63,3.34zm-8.91 -22.61l0 0c0,0 6.4,-7.03 6.88,-13.33l0.48 9.73 -7.36 3.6z"/>
   <path class="fil1" d="M68.36 102.56l0.36 1.43 6.85 -3.02 -0.22 -1.32c0,0 -1.56,0.5 -1.62,-0.55 -1.3,-21.65 -1.14,-28.94 -1.31,-38.14 -0.03,-1.44 1.78,-1.75 1.78,-1.75l-0.04 -1.11c-11.52,0.64 -21.31,2.29 -21.31,2.29l0.18 1.21c0,0 1.87,-0.21 1.97,1.06 1.6,21.28 1.54,25.63 3.23,42.51 0.17,1.65 -1.68,3 -1.68,3l0.37 1.67 8.58 -4.35 -0.36 -1.5c-0.93,0.3 -2.12,0.13 -2.21,-0.87 -2.81,-28.34 -2.81,-41.33 -2.81,-41.33 4.72,-0.81 7.4,-0.84 7.4,-0.84 0,0 0.28,25.32 2.2,39.42 0.21,1.53 -1.36,2.19 -1.36,2.19z"/>
   <path class="fil1" d="M105.34 87.73l0.08 1.18 5.74 -2.43 0 -1.24c-1.18,0.76 -1.16,-0.85 -1.16,-0.85l-0.71 -26.63c0,0 0.09,-0.75 0.95,-0.75l0 -0.89 -5.87 0.22 0.03 0.94c1.29,0.03 1.16,0.63 1.16,0.63l0.28 7.9 -6.25 0.9 -0.31 -8.69c0,0 -0.03,-0.58 0.93,-0.64l-0.01 -0.85 -5.86 0.29 0.04 0.92c1.32,-0.06 1.17,0.52 1.17,0.52l0.85 31.63c0,0 -0.14,1.49 -1.2,2.09l0.12 1.11 5.98 -2.46 0.01 -1.21c-1.1,0.56 -1.23,-1.26 -1.23,-1.26l-0.41 -18.5 6.24 -1.14 0.39 17.06c0,0 0.09,1.65 -0.96,2.15z"/>
   <path class="fil1" d="M113.6 84.57l0 0.97 10.61 -4.8c0,-0.26 0,-0.74 0,-0.74 -0.13,0.03 -1.09,0.31 -1.06,-0.51 0,0 -0.34,-9.99 -0.46,-12 0,0 -4.7,-0.16 -6.22,-5.77 -0.01,-0.05 -0.17,-3.05 -0.14,-4.7 0.02,-0.62 0.66,-0.55 0.65,-0.64 -0.01,-0.33 0.04,-0.48 0.04,-0.48l-3.76 0.1 0 0.64c0.65,0.03 0.61,0.48 0.61,0.48l0.51 25.96c0,0 0.01,0.69 -0.11,0.91 -0.12,0.2 -0.67,0.58 -0.67,0.58zm2.87 -19.83l0 0c0.11,1.32 3.84,3.69 3.83,3.46l0.42 13.04 -3.89 1.69c0,0 -0.48,-19.63 -0.36,-18.19z"/>
   <path class="fil1" d="M124.82 79.78l0.02 0.67 3.81 -1.88 0 -0.64c-0.86,0.49 -0.79,-0.24 -0.79,-0.24l-0.41 -20.67c0,0 -0.06,-0.72 0.79,-0.72l0 -0.56 -4.03 0.03 0 0.58c0.86,0.02 0.79,0.67 0.79,0.67l0.43 21.88c0,0 0.13,0.54 -0.61,0.88z"/>
   <path class="fil1" d="M138.64 56.36l0 -0.57 -3.16 0.03 0.02 0.49c0.55,0.02 0.49,0.7 0.49,0.7l-0.03 10.5c0,-0.95 -3.32,-1.64 -3.32,-1.64 -0.04,-3.14 -0.08,-8.98 -0.08,-8.98 0,0 -0.04,-0.58 0.56,-0.59l0.01 -0.51 -3.24 0 0 0.49c0.68,0.05 0.51,0.73 0.51,0.73l0.1 9.74c6.03,-0.12 5.49,3.1 5.49,3.31l0 2.92c0,0 0.06,0.5 -0.4,0.82l0.02 0.56c0,0 2.03,-1.34 2.92,-2.25l0.01 -0.53c-0.43,0.4 -0.41,-0.18 -0.41,-0.18l0 -14.49c0,0 -0.08,-0.56 0.51,-0.55z"/>
   <path class="fil1" d="M86.02 95.38l0.19 1.21 6.35 -2.57 -0.09 -0.93c0,0 -1.63,0.78 -1.67,-1.22 -0.23,-10.22 -0.46,-27.95 -0.42,-32.72 0.01,-1.26 1.88,-1.26 1.88,-1.26l-0.02 -0.97 -7.68 0.48 0.07 0.98c0,0 2.01,-0.16 2.13,1.2 0.89,9.99 -8.87,17.92 -8.87,17.92 0,0 0.65,14.26 1.15,19.26 0.16,1.48 -1.27,1.97 -1.27,1.97l0.2 1.24c2.98,-1.24 6.17,-2.54 6.17,-2.54l-0.16 -1.35c0,0 -1.47,0.77 -1.59,-0.48 -0.71,-7.21 -0.95,-15.19 -0.95,-15.19 0,0 3.5,-1.05 5.54,-1.57 0,0 0.12,12.54 0.4,14.65 0.21,1.63 -1.36,1.89 -1.36,1.89zm0.96 -20.09l0 0 -5.87 1.59c0,0 5.09,-4.46 5.87,-8.54l0 6.95z"/>
   <path class="fil1" d="M25.84 131.64c-1.68,2.57 -3.28,0.61 -3.28,0.61 0,0 -2.09,-5.59 -3.99,-11.56 0,0 0,0 0,0 -0.08,-13.06 6.31,-17.07 9.04,-18.9 0,0 -3.45,-26.57 -3.08,-29 0.13,-0.85 0.8,-2.66 2.2,-3.52l-0.05 -2.11c0,0 -13.68,4.16 -23.89,15.02 -0.67,0.71 -2.77,3.12 -2.77,3.12l0.26 1.88c0,0 2.93,-2.4 3.45,1.61 1.23,9.7 8.39,34.91 14.04,46.4 2.85,5.81 0.78,8.38 1.04,8.81 0.87,1.46 1.19,1.81 1.19,1.81 2.08,-7.57 6.48,-12.55 6.48,-12.55l-0.64 -1.62zm-7.92 -54.92l0 0c0.13,2.12 3.81,23.51 3.81,23.51 0,0 -5.07,6.55 -4.81,14.66l0.03 0.1c-0.01,0.06 -0.02,0.11 -0.03,0.17 0,0 0,-0.01 0,-0.01 0,0.01 0,0.01 0,0.01 0,0 0,0 0,0 -0.01,-0.04 -0.02,-0.08 -0.03,-0.12 -0.05,-0.16 -0.09,-0.31 -0.13,-0.47 -3.13,-11.69 -6.49,-25.11 -7.13,-29.89 -0.36,-2.74 8.29,-7.96 8.29,-7.96z"/>
   <path class="fil1" d="M16.76 114.57c0.04,0.16 0.09,0.32 0.13,0.47 0.01,0.04 0.02,0.08 0.03,0.11 -0.01,-0.09 0,-0.17 0,-0.26l-0.66 -2.29c0.15,0.63 0.32,1.29 0.5,1.97z"/>
   <path class="fil1" d="M93.86 112.48c40.08,-20.41 47.47,-33.26 48.47,-37.19l-1.34 1.09 0 0c-7.63,7.43 -50.79,24.46 -66.32,31.3 -45.78,20.17 -52.96,38.75 -53.06,48.25 -0.04,4.19 2.66,-0.08 3.22,1.33l13.73 14.77c0,0 -2.16,-30.27 55.3,-59.55z"/>
  </g>
 </g>
</svg>
