<?xml version="1.0" encoding="UTF-8" standalone="no"?>
<!-- Created with Inkscape (http://www.inkscape.org/) -->

<svg
   version="1.1"
   id="svg9"
   width="708"
   height="624"
   viewBox="0 0 708 624"
   sodipodi:docname="gallery-social-bg-tablet.svg"
   inkscape:version="1.1 (c68e22c387, 2021-05-23)"
   xmlns:inkscape="http://www.inkscape.org/namespaces/inkscape"
   xmlns:sodipodi="http://sodipodi.sourceforge.net/DTD/sodipodi-0.dtd"
   xmlns:xlink="http://www.w3.org/1999/xlink"
   xmlns="http://www.w3.org/2000/svg"
   xmlns:svg="http://www.w3.org/2000/svg">
  <defs
     id="defs13" />
  <sodipodi:namedview
     id="namedview11"
     pagecolor="#ffffff"
     bordercolor="#666666"
     borderopacity="1.0"
     inkscape:pageshadow="2"
     inkscape:pageopacity="0.0"
     inkscape:pagecheckerboard="0"
     showgrid="false"
     inkscape:zoom="0.91674581"
     inkscape:cx="493.59375"
     inkscape:cy="302.70114"
     inkscape:window-width="1920"
     inkscape:window-height="1017"
     inkscape:window-x="-4"
     inkscape:window-y="-4"
     inkscape:window-maximized="1"
     inkscape:current-layer="g15" />
  <g
     inkscape:groupmode="layer"
     inkscape:label="Image"
     id="g15">
    <image
       width="580"
       height="511"
       preserveAspectRatio="none"
       xlink:href="gallery-social-bg.jpg"
       id="image17" />
    <path
       style="fill:none;stroke:#00cd00;stroke-width:0.511898px;stroke-linecap:butt;stroke-linejoin:miter;stroke-opacity:1"
       d="M 337.89538,1.5957798 C 302.83776,0.61384051 284.289,14.931513 261.63698,25.446508 L 250.25091,31.477944 209.7911,51.009997 160.92218,69.415692 C 143.10052,76.853404 128.5445,80.955298 105.27624,93.956631 78.903763,109.79887 53.041779,128.62097 30.839736,168.80652 14.162706,200.76099 2.9349413,237.26482 1.9284279,282.30209 c 1.634977,70.38621 21.5063861,95.89305 32.4329531,115.14426 15.736533,20.67144 21.452073,36.94609 76.332869,74.8499 51.28065,32.17682 107.93726,32.98405 228.01738,35.84005 C 697.87105,502.23486 617.27736,11.85811 337.89538,1.5957798 Z"
       id="path392"
       sodipodi:nodetypes="cccccccccccc" />
    <g
       id="g3622">
      <g
         id="g3626"
         transform="matrix(0.62569347,0,0,0.99817284,355.70917,893.75003)" />
    </g>
  </g>
</svg>
