<?xml version="1.0" encoding="iso-8859-1"?>
<!-- Generator: Adobe Illustrator 19.0.0, SVG Export Plug-In . SVG Version: 6.00 Build 0)  -->
<svg version="1.1" id="Capa_1" xmlns="http://www.w3.org/2000/svg" xmlns:xlink="http://www.w3.org/1999/xlink" x="0px" y="0px"
	 viewBox="0 0 512 512" style="enable-background:new 0 0 512 512;" xml:space="preserve">
<g>
	<g>
		<path d="M467.627,312.326c-36.335-27.264-58.027-70.647-58.027-116.062v-8.533c0-14.114-11.486-25.6-25.6-25.6h-39.424
			c-10.564,0-20.181,6.63-23.936,16.503l-45.824,120.303c-12.501,32.734-18.833,67.098-18.816,102.127
			c0,61.167,49.766,110.933,110.933,110.933h34.133c61.167,0,110.933-49.766,110.933-110.933
			C512,366.325,495.411,333.156,467.627,312.326z M401.067,494.931h-34.133c-51.755,0-93.867-42.112-93.867-93.875
			c-0.017-32.939,5.931-65.254,17.698-96.034l45.824-120.311c0-0.008,0-0.008,0-0.008c1.254-3.294,4.463-5.504,7.987-5.504H384
			c4.71,0,8.533,3.831,8.533,8.533v8.533c0,50.756,24.243,99.251,64.862,129.707c23.501,17.638,37.538,45.705,37.538,75.093
			C494.933,452.819,452.821,494.931,401.067,494.931z"/>
	</g>
</g>
<g>
	<g>
		<path d="M396.194,279.49c-8.311-18.091-11.793-36.881-14.592-51.985c-1.604-8.713-2.884-15.607-4.813-20.796
			c-2.381-6.238-8.465-10.436-15.087-10.445c-0.043,0-0.077,0-0.111,0c-6.716,0-12.783,4.215-15.087,10.445l-28.331,74.342
			c-5.009,13.193,1.647,28.006,14.848,33.015c2.901,1.109,5.965,1.664,9.079,1.664h30.379c0.154,0,0.299,0,0.444,0
			c6.639,0,12.919-2.517,17.715-7.125c4.932-4.736,7.723-11.11,7.868-17.954C398.584,286.829,397.79,282.972,396.194,279.49z
			 M378.82,296.292c-1.596,1.536-3.686,2.372-5.905,2.372c-0.119,0-0.23,0-0.35,0h-30.464c-1.041,0-2.065-0.188-3.029-0.555
			c-4.403-1.673-6.622-6.613-4.958-10.999l27.452-72.021c1.092,3.849,2.108,9.344,3.26,15.531
			c2.807,15.181,6.665,35.976,15.846,55.979c0.529,1.161,0.794,2.449,0.768,3.712C381.397,292.589,380.459,294.713,378.82,296.292z"
			/>
	</g>
</g>
<g>
	<g>
		<path d="M477.816,393.581c-2.534-23.501-20.975-60.783-59.682-60.783H357.12c-36.608,0-66.662,29.781-66.987,66.475v1.212
			c-0.145,20.523,7.689,39.859,22.084,54.477c14.396,14.618,33.621,22.741,54.716,22.903h34.091c0.128,0,0.247,0,0.367,0
			c20.378,0,39.561-7.893,54.042-22.238c14.575-14.447,22.656-33.698,22.75-54.212C478.191,398.82,478.072,396.235,477.816,393.581z
			 M443.426,443.501c-11.332,11.23-26.103,17.596-42.359,17.297v0.008h-34.586c-32.939-0.256-59.529-27.247-59.281-60.245v-1.212
			c0.247-27.281,22.639-49.485,49.92-49.485h61.013c30.857,0,41.438,33.732,42.709,45.474c0.196,1.997,0.282,4.011,0.273,6.007
			C461.039,417.303,454.758,432.271,443.426,443.501z"/>
	</g>
</g>
<g>
	<g>
		<path d="M110.933,494.931c-51.755,0-93.867-42.112-93.867-93.875c-0.017-32.947,5.931-65.254,17.707-96.034l45.824-120.32
			c1.246-3.294,4.454-5.504,7.979-5.504h252.757v-17.067H88.576c-10.564,0-20.19,6.639-23.936,16.503L18.825,298.937
			C6.315,331.663-0.017,366.035,0,401.064c0,61.167,49.766,110.933,110.933,110.933H358.4v-17.067H110.933z"/>
	</g>
</g>
<g>
	<g>
		<path d="M460.075,13.634c-1.067-2.415-3.183-4.198-5.743-4.838l-34.133-8.533c-3.328-0.828-6.869,0.418-8.926,3.2l-6.195,8.363
			c-35.695,45.858-60.638,100.198-72.115,157.158l16.734,3.371c10.948-54.383,34.756-106.266,68.975-150.212l2.927-3.942
			l17.937,4.48l-3.755,6.963c-28.331,40.61-48.145,85.709-58.889,133.965l-1.195,5.12l16.614,3.866l1.212-5.188
			c10.3-46.31,29.312-89.498,56.516-128.375c0.196-0.273,0.358-0.546,0.521-0.836l9.216-17.067
			C461.022,18.814,461.141,16.04,460.075,13.634z"/>
	</g>
</g>
<g>
	<g>
		<path d="M374.741,13.634c-1.067-2.415-3.183-4.198-5.743-4.838l-34.133-8.533c-3.311-0.828-6.869,0.418-8.926,3.2l-6.195,8.363
			c-35.695,45.858-60.638,100.198-72.115,157.158l16.734,3.371c10.948-54.383,34.756-106.266,68.975-150.212l2.927-3.942
			l17.937,4.48l-3.755,6.963c-28.331,40.61-48.145,85.709-58.889,133.965l-1.195,5.12l16.614,3.866l1.212-5.188
			c10.3-46.31,29.312-89.498,56.516-128.375c0.196-0.273,0.358-0.546,0.521-0.836l9.216-17.067
			C375.689,18.814,375.808,16.04,374.741,13.634z"/>
	</g>
</g>
<g>
	<g>
		<path d="M289.408,13.625c-1.067-2.415-3.183-4.198-5.743-4.838l-34.133-8.533c-3.354-0.828-6.869,0.427-8.926,3.2l-6.195,8.363
			c-35.695,45.85-60.638,100.198-72.115,157.158l16.734,3.379c10.957-54.391,34.765-106.274,68.975-150.212l2.927-3.942l17.937,4.48
			l-3.755,6.963c-28.339,40.619-48.154,85.709-58.889,133.956l-1.195,5.12l16.614,3.883l1.212-5.205
			c10.3-46.302,29.312-89.498,56.516-128.375c0.196-0.273,0.358-0.546,0.521-0.836l9.216-17.067
			C290.355,18.805,290.475,16.032,289.408,13.625z"/>
	</g>
</g>
<g>
	<g>
		<path d="M204.075,13.625c-1.058-2.415-3.183-4.198-5.734-4.838l-34.133-8.533c-3.354-0.828-6.869,0.427-8.926,3.2l-6.195,8.363
			c-35.695,45.85-60.638,100.198-72.115,157.158l16.734,3.379c10.957-54.391,34.765-106.274,68.975-150.212l2.927-3.942l17.937,4.48
			l-3.763,6.963c-28.339,40.619-48.154,85.709-58.889,133.956l-1.195,5.12l16.614,3.883l1.212-5.205
			c10.3-46.302,29.312-89.498,56.516-128.375c0.188-0.273,0.367-0.546,0.521-0.836l9.216-17.067
			C205.03,18.805,205.141,16.032,204.075,13.625z"/>
	</g>
</g>
<g>
</g>
<g>
</g>
<g>
</g>
<g>
</g>
<g>
</g>
<g>
</g>
<g>
</g>
<g>
</g>
<g>
</g>
<g>
</g>
<g>
</g>
<g>
</g>
<g>
</g>
<g>
</g>
<g>
</g>
</svg>
