<?xml version="1.0" encoding="UTF-8"?>
<!DOCTYPE svg PUBLIC "-//W3C//DTD SVG 1.1//EN" "http://www.w3.org/Graphics/SVG/1.1/DTD/svg11.dtd">
<!-- Creator: CorelDRAW 2020 (64-Bit) -->
<svg xmlns="http://www.w3.org/2000/svg" xml:space="preserve" width="964px" height="777px" version="1.1" style="shape-rendering:geometricPrecision; text-rendering:geometricPrecision; image-rendering:optimizeQuality; fill-rule:evenodd; clip-rule:evenodd"
viewBox="0 0 1162.01 936.6"
 xmlns:xlink="http://www.w3.org/1999/xlink"
 xmlns:xodm="http://www.corel.com/coreldraw/odm/2003">
 <defs>
  <style type="text/css">
   <![CDATA[
    .fil0 {fill:#D9DDD2;fill-rule:nonzero}
   ]]>
  </style>
 </defs>
 <g id="__x0023_Layer_x0020_1">
  <metadata id="CorelCorpID_0Corel-Layer"/>
  <path class="fil0" d="M110.64 928.52c-51.53,-31.1 -17.74,-160.82 -13.52,-251.49 5.07,-90.66 -20.27,-141.62 -49.84,-215.08 -29.56,-72.8 -63.35,-168.1 -38.85,-265.39 24.5,-97.29 108.12,-196.56 209.48,-196.56 102.21,-0.66 221.3,97.95 356.45,137 136,39.04 287.19,19.19 390.24,60.22 103.9,41.03 159.65,143.62 184.14,252.15 25.34,108.54 17.74,223.03 -52.37,302.45 -70.95,79.41 -205.26,123.76 -326.04,130.37 -120.79,5.96 -228.07,-25.81 -349.7,-7.94 -122.48,17.87 -258.47,85.37 -309.99,54.27z"/>
  <path class="fil0" d="M110.64 928.52c-51.53,-31.1 -17.74,-160.82 -13.52,-251.49 5.07,-90.66 -20.27,-141.62 -49.84,-215.08 -29.56,-72.8 -63.35,-168.1 -38.85,-265.39 24.5,-97.29 108.12,-196.56 209.48,-196.56 102.21,-0.66 221.3,97.95 356.45,137 136,39.04 287.19,19.19 390.24,60.22 103.9,41.03 159.65,143.62 184.14,252.15 25.34,108.54 17.74,223.03 -52.37,302.45 -70.95,79.41 -205.26,123.76 -326.04,130.37 -120.79,5.96 -228.07,-25.81 -349.7,-7.94 -122.48,17.87 -258.47,85.37 -309.99,54.27z"/>
 </g>
</svg>
